<?xml version="1.0" standalone="no"?>
<!DOCTYPE svg PUBLIC "-//W3C//DTD SVG 20010904//EN"
 "http://www.w3.org/TR/2001/REC-SVG-20010904/DTD/svg10.dtd">
<svg version="1.0" xmlns="http://www.w3.org/2000/svg"
 width="148.000000pt" height="132.000000pt" viewBox="0 0 148.000000 132.000000"
 preserveAspectRatio="xMidYMid meet">
<metadata>
Created by potrace 1.16, written by Peter Selinger 2001-2019
</metadata>
<g transform="translate(0.000000,132.000000) scale(0.100000,-0.100000)"
fill="#000000" stroke="none">
<path d="M63 1313 c-10 -4 -13 -81 -13 -342 0 -288 -2 -340 -15 -359 l-16 -22
353 -3 353 -2 -362 -3 c-338 -2 -363 -3 -363 -19 1 -27 92 -93 129 -93 17 0
31 5 31 12 0 9 3 9 12 0 19 -19 39 -14 70 15 27 26 28 26 48 8 28 -26 126 -32
151 -9 14 12 22 13 39 4 17 -9 25 -8 39 4 24 22 63 20 94 -4 15 -12 40 -20 65
-20 31 0 41 -4 45 -20 4 -16 14 -20 44 -20 35 0 40 -4 62 -45 29 -54 102 -125
162 -156 66 -34 185 -38 261 -9 79 29 150 96 190 178 l33 67 3 422 3 423 -63
0 c-35 0 -68 -4 -74 -8 -17 -11 -34 -48 -138 -302 -54 -129 -101 -239 -105
-243 -4 -4 -54 110 -111 254 -57 144 -111 270 -121 280 -16 16 -47 18 -406 17
-213 0 -394 -2 -400 -5z m602 -35 l-13 -33 -221 -3 -221 -2 -10 25 c-6 15 -10
31 -10 36 0 5 100 9 245 9 l244 0 -14 -32z m-399 -355 l120 -308 40 -3 40 -3
119 293 c65 161 122 300 126 308 4 8 9 -126 11 -298 l3 -312 -340 2 c-187 1
-321 3 -297 5 l42 4 0 310 c0 170 4 309 8 309 5 0 62 -138 128 -307z m374 303
c0 -3 -4 -16 -10 -30 l-10 -26 -190 0 -190 0 -10 26 c-6 14 -10 27 -10 30 0 2
94 4 210 4 116 0 210 -2 210 -4z m295 -321 c59 -154 112 -286 117 -292 8 -10
-19 -13 -128 -12 -77 0 -133 3 -126 6 9 3 12 75 12 306 0 173 4 296 9 287 5
-8 57 -141 116 -295z m468 -297 c9 -6 8 -8 -4 -8 -11 0 -16 -10 -16 -32 0 -44
-41 -78 -94 -78 -52 0 -104 46 -96 85 4 23 1 25 -37 25 -25 0 -36 4 -28 8 7 5
62 132 123 283 61 151 116 285 123 299 9 20 12 -40 14 -275 2 -224 5 -301 15
-307z m-797 535 c-19 -59 -164 -387 -172 -390 -10 -3 -147 299 -147 325 0 6
-4 12 -8 12 -3 0 -9 8 -12 18 -2 9 -8 25 -12 35 -7 16 5 17 175 17 168 0 181
-1 176 -17z"/>
</g>
</svg>
